<svg xmlns="http://www.w3.org/2000/svg" viewBox="0 0 210 210" role="img" aria-label="Daily podcast">
  <style>
    .logo-daily-text    { fill: var(--text, #1a1714); }
    .logo-daily-bracket { fill: var(--accent, #3730a3); }
  </style>
  <g class="logo-daily-text">
    <path d="m 77.064453,94.957031 v 17.464849 h 5.242188 c 2.570592,0 4.660518,-0.65436 6.273437,-1.96485 C 90.192991,109.12973 91,106.8442 91,103.60156 c 0,-3.29305 -0.830816,-5.552792 -2.494141,-6.779294 -1.646512,-1.243291 -3.839517,-1.865235 -6.578125,-1.865235 z m 4.132813,3 h 1.310546 c 0.890468,0 1.637343,0.159281 2.242188,0.478516 0.604845,0.302422 1.084673,0.864244 1.4375,1.687503 0.352827,0.82325 0.529297,1.98319 0.529297,3.47851 0,2.18416 -0.35294,3.70369 -1.058594,4.56055 -0.705652,0.84007 -1.738705,1.26172 -3.099609,1.26172 h -1.361328 z"/>
    <path d="m 98.232422,98.611328 c -0.756057,0 -1.57827,0.08383 -2.46875,0.251953 -0.873668,0.168023 -1.730245,0.411258 -2.570313,0.730469 l 0.90625,2.62109 c 0.655257,-0.21838 1.294359,-0.38627 1.916016,-0.5039 0.621633,-0.13431 1.151045,-0.20117 1.587891,-0.20117 0.840044,0 1.427625,0.1507 1.763671,0.45312 0.336023,0.28561 0.503907,0.82363 0.503907,1.61328 v 0.58008 h -1.361328 c -2.032971,0 -3.586843,0.38533 -4.66211,1.1582 -1.075291,0.77285 -1.613281,1.88986 -1.613281,3.35157 0,1.24331 0.395891,2.25254 1.185547,3.02539 0.78968,0.77286 1.848503,1.1582 3.175781,1.1582 1.814536,0 3.157582,-0.67151 4.031247,-2.01563 0.28564,0.63845 0.69011,1.10969 1.21094,1.41211 0.52083,0.28569 1.19235,0.46215 2.01563,0.5293 l 0.83203,-2.5957 c -0.31924,-0.11757 -0.55582,-0.29403 -0.70703,-0.5293 -0.13431,-0.23522 -0.20118,-0.60535 -0.20118,-1.10937 v -5.19141 c 0,-1.57931 -0.44545,-2.76503 -1.33593,-3.554688 -0.89046,-0.789656 -2.29365,-1.183594 -4.208988,-1.183594 z m 0.65625,7.736332 h 0.982422 v 2.36914 c -0.504046,0.85685 -1.20992,1.28515 -2.117188,1.28515 -0.487233,0 -0.872568,-0.1421 -1.158203,-0.42773 -0.268799,-0.30242 -0.404297,-0.72215 -0.404297,-1.25977 0,-0.67207 0.219428,-1.16711 0.65625,-1.48632 0.453634,-0.31924 1.133748,-0.48047 2.041016,-0.48047 z"/>
    <path d="m 108.91797,91.982422 c -0.68886,0 -1.25066,0.219404 -1.6875,0.65625 -0.43682,0.420034 -0.65625,0.958048 -0.65625,1.613281 0,0.655257 0.21943,1.199873 0.65625,1.636719 0.43684,0.42001 0.99864,0.630859 1.6875,0.630859 0.68883,0 1.25261,-0.210849 1.68945,-0.630859 0.45364,-0.436846 0.67969,-0.981462 0.67969,-1.636719 0,-0.655233 -0.22605,-1.193247 -0.67969,-1.613281 -0.43684,-0.436846 -1.00062,-0.65625 -1.68945,-0.65625 z m -1.96484,7.05664 v 13.382818 h 3.98242 V 99.039062 Z"/>
    <path d="m 117.91602,93.292969 -3.98243,0.429687 v 15.296874 c 0,1.2265 0.32054,2.17561 0.95899,2.84766 0.65525,0.65525 1.56142,0.98242 2.7207,0.98242 0.89048,0 1.69749,-0.1507 2.41992,-0.45313 l -0.78125,-2.82226 c -0.20155,0.0841 -0.42098,0.125 -0.65625,0.125 -0.45363,0 -0.67968,-0.27565 -0.67968,-0.83008 z"/>
    <path d="m 119.58008,99.039062 4.08203,13.382818 h 1.36133 c -0.36962,0.89047 -0.86663,1.53818 -1.48828,1.9414 -0.60485,0.40313 -1.54538,0.68735 -2.82227,0.85547 l 0.42969,2.79883 c 2.04976,-0.11761 3.67898,-0.64702 4.88867,-1.58789 1.2265,-0.92408 2.10884,-2.2519 2.64648,-3.98242 l 4.25782,-13.408208 h -4.10743 l -2.62109,10.837888 -2.39453,-10.837888 z"/>
  </g>
  <g class="logo-daily-bracket">
    <path d="m 98.548828,18.154297 v 47.68164 h 13.357422 v -5.896484 h -5.79687 V 24.101562 h 5.79687 v -5.947265 z"/>
    <path d="m 98.09375,144.16406 v 5.94727 h 5.79688 v 35.78711 h -5.79688 v 5.94726 h 13.35742 v -47.68164 z"/>
  </g>
</svg>
