<?xml version="1.0" encoding="UTF-8" standalone="no"?>
<svg
   viewBox="0 0 210 210"
   role="img"
   aria-label="Vaguely Generic Podcasts"
   version="1.1"
   id="svg14"
   sodipodi:docname="daily-podcast-logo-flat.svg"
   inkscape:version="1.4.3 (0d15f75042, 2025-12-25)"
   xmlns:inkscape="http://www.inkscape.org/namespaces/inkscape"
   xmlns:sodipodi="http://sodipodi.sourceforge.net/DTD/sodipodi-0.dtd"
   xmlns="http://www.w3.org/2000/svg"
   xmlns:svg="http://www.w3.org/2000/svg">
  <defs
     id="defs14">
    <rect
       x="51.066998"
       y="82.593053"
       width="106.82382"
       height="58.883375"
       id="rect14" />
  </defs>
  <sodipodi:namedview
     id="namedview14"
     pagecolor="#ffffff"
     bordercolor="#000000"
     borderopacity="0.25"
     inkscape:showpageshadow="2"
     inkscape:pageopacity="0.0"
     inkscape:pagecheckerboard="0"
     inkscape:zoom="3.8380952"
     inkscape:cx="106.17246"
     inkscape:cy="105"
     inkscape:window-width="1920"
     inkscape:window-height="1008"
     inkscape:window-x="0"
     inkscape:window-y="0"
     inkscape:window-maximized="1" />
  <style
     id="style1">
    .vgp-bracket  { fill: var(--accent, #3730a3); stroke: var(--accent-bg, #eef2ff); }
    .vgp-headphones   { fill: var(--accent,   #1a1714); opacity: 0.6; }
    .vgp-waveform     { fill: var(--accent, #3730a3); opacity: 0.2; }
    .vgp-text     { fill: var(--text, #1a1714); }
  </style>
  <!-- ── headphones ───────────────────────────────────────────
       Single compound path: arc band + two ear cups.
       Sits behind everything.
  ──────────────────────────────────────────────────────────── -->
  <g
     id="headphones"
     class="vgp-headphones"
     inkscape:label="headphones">
    <path
       d="M 105,10.558594 A 90.853293,90.853293 0 0 0 14.146484,101.41211 v 10.61914 h 7.080078 c 2.660012,0 5.108954,0.87165 7.078125,2.3457 v -12.96484 a 76.695312,76.695312 0 0 1 153.390623,0 v 12.96484 c 1.96917,-1.47405 4.41812,-2.3457 7.07813,-2.3457 h 7.08008 V 101.41211 A 90.853293,90.853293 0 0 0 105,10.558594 Z"
       id="headphone-band" />
    <path
       d="m 11.787109,112.03125 c -6.5367171,0 -11.79882775,5.26211 -11.79882775,11.79883 v 37.75781 c 0,6.53672 5.26211065,11.79883 11.79882775,11.79883 h 9.439453 c 6.536718,0 11.798829,-5.26211 11.798829,-11.79883 v -37.75781 c 0,-6.53672 -5.262111,-11.79883 -11.798829,-11.79883 z"
       id="headphone-ear-left" />
    <path
       d="m 188.77344,112.03125 c -6.53672,0 -11.79883,5.26211 -11.79883,11.79883 v 37.75781 c 0,6.53672 5.26211,11.79883 11.79883,11.79883 h 9.43945 c 6.53672,0 11.79883,-5.26211 11.79883,-11.79883 v -37.75781 c 0,-6.53672 -5.26211,-11.79883 -11.79883,-11.79883 z"
       id="headphone-ear-right" />
  </g>
  <!-- ── waveform ──────────────────────────────────────────────
       Drawn directly in 210×210 space, centred at y≈118.
       Accent colour at 0.82 opacity so it darkens where it
       overlaps the headphone ear cups.
  ──────────────────────────────────────────────────────────── -->
  <g
     id="waveform"
     class="vgp-waveform"
     inkscape:label="waveform">
    <path
       d="m 41,114 c -1.662,0 -3,1.338 -3,3 v 2 c 0,1.662 1.338,3 3,3 1.662,0 3,-1.338 3,-3 v -2 c 0,-1.662 -1.338,-3 -3,-3 z"
       id="wf-01-l"
       inkscape:label="wf-01-l" />
    <path
       d="m 53,106 c -1.662,0 -3,1.338 -3,3 v 18 c 0,1.662 1.338,3 3,3 1.662,0 3,-1.338 3,-3 v -18 c 0,-1.662 -1.338,-3 -3,-3 z"
       id="wf-02-l"
       inkscape:label="wf-02-l" />
    <path
       d="m 65,92 c -1.662,0 -3,1.338 -3,3 v 46 c 0,1.662 1.338,3 3,3 1.662,0 3,-1.338 3,-3 V 95 c 0,-1.662 -1.338,-3 -3,-3 z"
       id="wf-03-l"
       inkscape:label="wf-03-l" />
    <path
       d="m 77,76 c -1.662,0 -3,1.338 -3,3 v 78 c 0,1.662 1.338,3 3,3 1.662,0 3,-1.338 3,-3 V 79 c 0,-1.662 -1.338,-3 -3,-3 z"
       id="wf-04-l"
       inkscape:label="wf-04-l" />
    <path
       d="m 89,60 c -1.662,0 -3,1.338 -3,3 v 110 c 0,1.662 1.338,3 3,3 1.662,0 3,-1.338 3,-3 V 63 c 0,-1.662 -1.338,-3 -3,-3 z"
       id="wf-05-l"
       inkscape:label="wf-05-l" />
    <path
       d="m 105,50 c -1.662,0 -3,1.338 -3,3 v 130 c 0,1.662 1.338,3 3,3 1.662,0 3,-1.338 3,-3 V 53 c 0,-1.662 -1.338,-3 -3,-3 z"
       id="wf-06-c"
       inkscape:label="wf-06-c" />
    <path
       d="m 121,60 c -1.662,0 -3,1.338 -3,3 v 110 c 0,1.662 1.338,3 3,3 1.662,0 3,-1.338 3,-3 V 63 c 0,-1.662 -1.338,-3 -3,-3 z"
       id="wf-07-r"
       inkscape:label="wf-07-r" />
    <path
       d="m 133,76 c -1.662,0 -3,1.338 -3,3 v 78 c 0,1.662 1.338,3 3,3 1.662,0 3,-1.338 3,-3 V 79 c 0,-1.662 -1.338,-3 -3,-3 z"
       id="wf-08-r"
       inkscape:label="wf-08-r" />
    <path
       d="m 145,92 c -1.662,0 -3,1.338 -3,3 v 46 c 0,1.662 1.338,3 3,3 1.662,0 3,-1.338 3,-3 V 95 c 0,-1.662 -1.338,-3 -3,-3 z"
       id="wf-09-r"
       inkscape:label="wf-09-r" />
    <path
       d="m 157,106 c -1.662,0 -3,1.338 -3,3 v 18 c 0,1.662 1.338,3 3,3 1.662,0 3,-1.338 3,-3 v -18 c 0,-1.662 -1.338,-3 -3,-3 z"
       id="wf-10-r"
       inkscape:label="wf-10-r" />
    <path
       d="m 169,114 c -1.662,0 -3,1.338 -3,3 v 2 c 0,1.662 1.338,3 3,3 1.662,0 3,-1.338 3,-3 v -2 c 0,-1.662 -1.338,-3 -3,-3 z"
       id="wf-11-r"
       inkscape:label="wf-11-r" />
  </g>
  <g
     id="brackets"
     class="vgp-bracket"
     inkscape:label="brackets">
    <path
       d="m 98.548828,18.154297 v 47.68164 h 13.357422 v -5.896484 h -5.79687 V 24.101562 h 5.79687 v -5.947265 z"
       id="bracket-top"
       inkscape:label="bracket-top" />
    <path
       d="m 98.09375,144.16406 v 5.94727 h 5.79688 v 35.78711 h -5.79688 v 5.94726 h 13.35742 v -47.68164 z"
       id="bracket-bottom"
       inkscape:label="bracket-bottom" />
  </g>
  <path
     d="m 46.407935,79.496022 q 10.432,0 16.704,4.736 6.336,4.672 6.336,17.215998 0,12.352 -6.144,17.408 -6.144,4.992 -15.936,4.992 h -13.312 V 79.496022 Z m -1.856,7.616 v 29.119998 h 3.456 q 5.184,0 7.872,-3.2 2.688,-3.264 2.688,-11.584 0,-5.695998 -1.344,-8.831998 -1.344,-3.136 -3.648,-4.288 -2.304,-1.216 -5.696,-1.216 z m 57.344045,26.879998 q 0,1.92 0.512,2.816 0.576,0.896 1.792,1.344 l -2.112,6.592 q -3.135997,-0.256 -5.119997,-1.344 -1.984,-1.152 -3.072,-3.584 -3.328,5.12 -10.24,5.12 -5.056,0 -8.064,-2.944 -3.008,-2.944 -3.008,-7.68 0,-5.568 4.096,-8.512 4.096,-2.944 11.84,-2.944 h 3.456 v -1.472 q 0,-3.007998 -1.28,-4.095998 -1.28,-1.152 -4.48,-1.152 -1.664,0 -4.032,0.512 -2.368,0.448 -4.864,1.28 l -2.304,-6.656 q 3.2,-1.216 6.528,-1.856 3.392,-0.64 6.272,-0.64 7.296,0 10.688,3.008 3.391997,3.008 3.391997,9.023998 z m -15.295997,3.712 q 3.456,0 5.376,-3.264 v -6.016 h -2.496 q -3.456,0 -5.184,1.216 -1.664,1.216 -1.664,3.776 0,2.048 1.024,3.2 1.088,1.088 2.944,1.088 z M 120.072,89.864022 V 123.84802 H 109.96 V 89.864022 Z m -5.12,-17.92 q 2.624,0 4.288,1.664 1.728,1.6 1.728,4.096 0,2.496 -1.728,4.16 -1.664,1.6 -4.288,1.6 -2.624,0 -4.288,-1.6 -1.664,-1.664 -1.664,-4.16 0,-2.496 1.664,-4.096 1.664,-1.664 4.288,-1.664 z m 22.07998,52.991998 q -4.416,0 -6.912,-2.496 -2.432,-2.56 -2.432,-7.232 V 76.360022 l 10.112,-1.088 v 39.551998 q 0,2.112 1.728,2.112 0.896,0 1.664,-0.32 l 1.984,7.168 q -2.752,1.152 -6.144,1.152 z m 28.09604,-1.024 q -2.048,6.592 -6.72,10.112 -4.608,3.584 -12.416,4.032 l -1.088,-7.104 q 4.864,-0.64 7.168,-2.176 2.368,-1.536 3.776,-4.928 h -3.456 l -10.368,-33.983998 h 10.752 l 6.08,27.519998 6.656,-27.519998 h 10.432 z"
     id="text-daily"
     class="vgp-text"
     style="font-weight:bold;font-size:64px;font-family:'Fira Sans';stroke-width:30;stroke-linecap:round;stroke-linejoin:round"
     aria-label="Daily"
     inkscape:label="text-daily" />
</svg>
